<?xml version="1.0" encoding="utf-8"?>
<!-- Generator: Adobe Illustrator 24.2.1, SVG Export Plug-In . SVG Version: 6.00 Build 0)  -->
<svg version="1.1" id="Layer_1" xmlns="http://www.w3.org/2000/svg" xmlns:xlink="http://www.w3.org/1999/xlink" x="0px" y="0px"
	 viewBox="0 0 1024 1024" style="enable-background:new 0 0 1024 1024;" xml:space="preserve">
<style type="text/css">
	.st0{fill:#198754;}
	.st1{fill:none;}
</style>
<path class="st0" d="M911.6,232.1H112.4c-24.52,0-44.4,19.88-44.4,44.4v444c0,24.52,19.88,44.4,44.4,44.4h799.2
	c24.52,0,44.4-19.88,44.4-44.4v-444C956,251.98,936.12,232.1,911.6,232.1z M134.6,698.3v-88.8c49.05,0,88.8,39.75,88.8,88.8H134.6z
	 M134.6,387.5v-88.8h88.8C223.4,347.75,183.65,387.5,134.6,387.5z M512,631.7c-61.31,0-111-59.65-111-133.2
	c0-73.57,49.7-133.2,111-133.2s111,59.63,111,133.2C623,572.08,573.29,631.7,512,631.7z M889.4,698.3h-88.8
	c0-49.05,39.75-88.8,88.8-88.8V698.3z M889.4,387.5c-49.05,0-88.8-39.75-88.8-88.8h88.8V387.5z"/>
<g>
	<rect x="428.06" y="430.17" class="st1" width="162.5" height="134.75"/>
	<path class="st0" d="M432.74,519.45l2.52-12.6h96.84l-2.7,12.6H432.74z M437.78,494.61l2.52-12.6h96.84l-2.7,12.6H437.78z
		 M514.82,565.53c-12.72,0-23.64-2.25-32.76-6.75c-9.12-4.5-16.14-10.8-21.06-18.9c-4.92-8.1-7.38-17.49-7.38-28.17
		c0-10.56,1.86-20.43,5.58-29.61c3.72-9.18,9-17.25,15.84-24.21c6.84-6.96,15-12.36,24.48-16.2c9.48-3.84,20.1-5.76,31.86-5.76
		c10.92,0,20.52,1.8,28.8,5.4c8.28,3.6,14.64,8.82,19.08,15.66l-16.92,14.22c-3.36-4.8-7.77-8.46-13.23-10.98
		c-5.46-2.52-11.91-3.78-19.35-3.78c-8.04,0-15.3,1.38-21.78,4.14c-6.48,2.76-12,6.63-16.56,11.61
		c-4.56,4.98-8.04,10.71-10.44,17.19c-2.4,6.48-3.6,13.44-3.6,20.88c0,6.84,1.5,12.9,4.5,18.18c3,5.28,7.41,9.36,13.23,12.24
		c5.82,2.88,12.99,4.32,21.51,4.32c7.08,0,13.65-1.23,19.71-3.69c6.06-2.46,11.43-6.15,16.11-11.07l13.86,14.94
		c-6.12,6.96-13.62,12.09-22.5,15.39C534.92,563.88,525.26,565.53,514.82,565.53z"/>
</g>
<g>
</g>
<g>
</g>
<g>
</g>
<g>
</g>
<g>
</g>
<g>
</g>
<g>
</g>
<g>
</g>
<g>
</g>
<g>
</g>
<g>
</g>
<g>
</g>
<g>
</g>
<g>
</g>
<g>
</g>
</svg>
