<svg version="1.1" id="Layer_1" xmlns="http://www.w3.org/2000/svg" x="0" y="0" viewBox="0 0 1024 1024" xml:space="preserve">
  <style>
    .st0{fill:#198754}
  </style>
  <path class="st0" d="M972.8 197.2H51.2C22.9 197.2 0 220.1 0 248.4v512c0 28.3 22.9 51.2 51.2 51.2h921.6c28.3 0 51.2-22.9 51.2-51.2v-512c0-28.3-22.9-51.2-51.2-51.2zm-896 537.6V632.4c56.6 0 102.4 45.8 102.4 102.4H76.8zm0-358.4V274h102.4c0 56.6-45.8 102.4-102.4 102.4zM512 658c-70.7 0-128-68.8-128-153.6s57.3-153.6 128-153.6 128 68.8 128 153.6c0 84.9-57.3 153.6-128 153.6zm435.2 76.8H844.8c0-56.6 45.8-102.4 102.4-102.4v102.4zm0-358.4c-56.6 0-102.4-45.8-102.4-102.4h102.4v102.4z"/>
  <path fill="none" d="M374.1 391.7h271.5v225.2H374.1z"/>
  <path class="st0" d="m381.7 535.6 4.1-20.3h156l-4.3 20.3H381.7zm8.1-40.1 4.1-20.3h156l-4.3 20.3H389.8zm124.1 114.3c-20.5 0-38.1-3.6-52.8-10.9s-26-17.4-33.9-30.5-11.9-28.2-11.9-45.4c0-17 3-32.9 9-47.7s14.5-27.8 25.5-39 24.2-19.9 39.4-26.1 32.4-9.3 51.3-9.3c17.6 0 33.1 2.9 46.4 8.7 13.3 5.8 23.6 14.2 30.7 25.2l-27.3 22.9A52.66 52.66 0 0 0 569 440c-8.8-4.1-19.2-6.1-31.2-6.1-13 0-24.7 2.2-35.1 6.7a78.06 78.06 0 0 0-26.7 18.7c-7.4 8-13 17.3-16.8 27.7-3.9 10.4-5.8 21.6-5.8 33.6 0 11 2.4 20.8 7.3 29.3 4.8 8.5 11.9 15.1 21.3 19.7s20.9 7 34.7 7c11.4 0 22-2 31.8-6s18.4-9.9 26-17.8l22.3 24.1a88.33 88.33 0 0 1-36.3 24.8c-14.2 5.4-29.8 8.1-46.6 8.1z"/>
</svg>
